<svg width="125" height="36" viewBox="0 0 125 36" fill="none" xmlns="http://www.w3.org/2000/svg">
<path d="M31.082 19.6162C30.9502 20.7441 30.5327 21.6157 29.8296 22.231C29.1313 22.8413 28.2012 23.1465 27.0391 23.1465C25.7793 23.1465 24.7686 22.6948 24.0068 21.7915C23.25 20.8882 22.8716 19.6797 22.8716 18.166V17.1406C22.8716 16.1494 23.0474 15.2778 23.3989 14.5259C23.7554 13.7739 24.2583 13.1978 24.9077 12.7974C25.5571 12.3921 26.3091 12.1895 27.1636 12.1895C28.2964 12.1895 29.2046 12.5068 29.8882 13.1416C30.5718 13.7715 30.9697 14.6455 31.082 15.7637H29.6685C29.5464 14.9141 29.2803 14.2988 28.8701 13.918C28.4648 13.5371 27.896 13.3467 27.1636 13.3467C26.2651 13.3467 25.5596 13.6787 25.0469 14.3428C24.5391 15.0068 24.2852 15.9517 24.2852 17.1772V18.21C24.2852 19.3672 24.5269 20.2876 25.0103 20.9712C25.4937 21.6548 26.1699 21.9966 27.0391 21.9966C27.8203 21.9966 28.4185 21.8208 28.8335 21.4692C29.2534 21.1128 29.5317 20.4951 29.6685 19.6162H31.082ZM41.2114 18.0122C41.2114 19.0571 41.0356 19.9702 40.6841 20.7515C40.3325 21.5278 39.8345 22.1211 39.1899 22.5312C38.5454 22.9414 37.7935 23.1465 36.9341 23.1465C36.0942 23.1465 35.3496 22.9414 34.7002 22.5312C34.0508 22.1162 33.5454 21.5278 33.1841 20.7661C32.8276 19.9995 32.6445 19.1133 32.6348 18.1074V17.3384C32.6348 16.313 32.813 15.4072 33.1694 14.6211C33.5259 13.835 34.0288 13.2344 34.6782 12.8193C35.3325 12.3994 36.0796 12.1895 36.9194 12.1895C37.7739 12.1895 38.5259 12.397 39.1753 12.812C39.8296 13.2222 40.3325 13.8203 40.6841 14.6064C41.0356 15.3877 41.2114 16.2983 41.2114 17.3384V18.0122ZM39.8125 17.3237C39.8125 16.0591 39.5586 15.0898 39.0508 14.416C38.543 13.7373 37.8325 13.3979 36.9194 13.3979C36.0308 13.3979 35.3301 13.7373 34.8174 14.416C34.3096 15.0898 34.0483 16.0273 34.0337 17.2285V18.0122C34.0337 19.2378 34.29 20.2021 34.8027 20.9053C35.3203 21.6035 36.0308 21.9526 36.9341 21.9526C37.8423 21.9526 38.5454 21.623 39.0435 20.9639C39.5415 20.2998 39.7979 19.3501 39.8125 18.1147V17.3237ZM47.2319 18.686H44.7271V23H43.3135V12.3359H46.8438C48.0449 12.3359 48.9678 12.6094 49.6123 13.1562C50.2617 13.7031 50.5864 14.499 50.5864 15.5439C50.5864 16.208 50.4058 16.7866 50.0444 17.2798C49.688 17.7729 49.1899 18.1416 48.5503 18.3857L51.0552 22.9121V23H49.5464L47.2319 18.686ZM44.7271 17.5361H46.8877C47.5859 17.5361 48.1401 17.3555 48.5503 16.9941C48.9653 16.6328 49.1729 16.1494 49.1729 15.5439C49.1729 14.8848 48.9751 14.3794 48.5796 14.0278C48.189 13.6763 47.6226 13.498 46.8804 13.4932H44.7271V17.5361ZM60.7671 18.0122C60.7671 19.0571 60.5913 19.9702 60.2397 20.7515C59.8882 21.5278 59.3901 22.1211 58.7456 22.5312C58.1011 22.9414 57.3491 23.1465 56.4897 23.1465C55.6499 23.1465 54.9053 22.9414 54.2559 22.5312C53.6064 22.1162 53.1011 21.5278 52.7397 20.7661C52.3833 19.9995 52.2002 19.1133 52.1904 18.1074V17.3384C52.1904 16.313 52.3687 15.4072 52.7251 14.6211C53.0815 13.835 53.5845 13.2344 54.2339 12.8193C54.8882 12.3994 55.6353 12.1895 56.4751 12.1895C57.3296 12.1895 58.0815 12.397 58.731 12.812C59.3853 13.2222 59.8882 13.8203 60.2397 14.6064C60.5913 15.3877 60.7671 16.2983 60.7671 17.3384V18.0122ZM59.3682 17.3237C59.3682 16.0591 59.1143 15.0898 58.6064 14.416C58.0986 13.7373 57.3882 13.3979 56.4751 13.3979C55.5864 13.3979 54.8857 13.7373 54.373 14.416C53.8652 15.0898 53.604 16.0273 53.5894 17.2285V18.0122C53.5894 19.2378 53.8457 20.2021 54.3584 20.9053C54.876 21.6035 55.5864 21.9526 56.4897 21.9526C57.3979 21.9526 58.1011 21.623 58.5991 20.9639C59.0972 20.2998 59.3535 19.3501 59.3682 18.1147V17.3237ZM71.0723 23H69.6587L64.29 14.7822V23H62.8765V12.3359H64.29L69.6733 20.5903V12.3359H71.0723V23ZM79.5903 20.2168H75.1226L74.1191 23H72.6689L76.7412 12.3359H77.9717L82.0513 23H80.6084L79.5903 20.2168ZM75.5474 19.0596H79.1729L77.3564 14.0718L75.5474 19.0596ZM86.0942 19.0229H82.52V17.917H86.0942V19.0229ZM90.7744 18.2466C89.5684 17.8999 88.6895 17.4751 88.1377 16.9722C87.5908 16.4644 87.3174 15.8394 87.3174 15.0972C87.3174 14.2573 87.6519 13.564 88.3208 13.0171C88.9946 12.4653 89.8687 12.1895 90.9429 12.1895C91.6753 12.1895 92.3271 12.3311 92.8984 12.6143C93.4746 12.8975 93.9189 13.2881 94.2314 13.7861C94.5488 14.2842 94.7075 14.8286 94.7075 15.4194H93.2939C93.2939 14.7749 93.0889 14.2695 92.6787 13.9033C92.2686 13.5322 91.6899 13.3467 90.9429 13.3467C90.2495 13.3467 89.7075 13.5005 89.3169 13.8081C88.9312 14.1108 88.7383 14.5332 88.7383 15.0752C88.7383 15.5098 88.9214 15.8784 89.2876 16.1812C89.6587 16.479 90.2861 16.7524 91.1699 17.0015C92.0586 17.2505 92.752 17.5264 93.25 17.8291C93.7529 18.127 94.124 18.4761 94.3633 18.8765C94.6074 19.2769 94.7295 19.748 94.7295 20.29C94.7295 21.1543 94.3926 21.8477 93.7188 22.3701C93.0449 22.8877 92.144 23.1465 91.0161 23.1465C90.2837 23.1465 89.6001 23.0073 88.9653 22.729C88.3306 22.4458 87.8398 22.0601 87.4932 21.5718C87.1514 21.0835 86.9805 20.5293 86.9805 19.9092H88.394C88.394 20.5537 88.6309 21.064 89.1045 21.4399C89.583 21.811 90.2202 21.9966 91.0161 21.9966C91.7583 21.9966 92.3271 21.8452 92.7227 21.5425C93.1182 21.2397 93.3159 20.8271 93.3159 20.3047C93.3159 19.7822 93.1328 19.3794 92.7666 19.0962C92.4004 18.8081 91.7363 18.5249 90.7744 18.2466ZM103.907 13.4932H100.479V23H99.0801V13.4932H95.6597V12.3359H103.907V13.4932ZM113.487 18.0122C113.487 19.0571 113.311 19.9702 112.959 20.7515C112.608 21.5278 112.11 22.1211 111.465 22.5312C110.821 22.9414 110.069 23.1465 109.209 23.1465C108.37 23.1465 107.625 22.9414 106.976 22.5312C106.326 22.1162 105.821 21.5278 105.459 20.7661C105.103 19.9995 104.92 19.1133 104.91 18.1074V17.3384C104.91 16.313 105.088 15.4072 105.445 14.6211C105.801 13.835 106.304 13.2344 106.954 12.8193C107.608 12.3994 108.355 12.1895 109.195 12.1895C110.049 12.1895 110.801 12.397 111.451 12.812C112.105 13.2222 112.608 13.8203 112.959 14.6064C113.311 15.3877 113.487 16.2983 113.487 17.3384V18.0122ZM112.088 17.3237C112.088 16.0591 111.834 15.0898 111.326 14.416C110.818 13.7373 110.108 13.3979 109.195 13.3979C108.306 13.3979 107.605 13.7373 107.093 14.416C106.585 15.0898 106.324 16.0273 106.309 17.2285V18.0122C106.309 19.2378 106.565 20.2021 107.078 20.9053C107.596 21.6035 108.306 21.9526 109.209 21.9526C110.118 21.9526 110.821 21.623 111.319 20.9639C111.817 20.2998 112.073 19.3501 112.088 18.1147V17.3237ZM117.002 18.8252V23H115.596V12.3359H119.529C120.696 12.3359 121.609 12.6338 122.269 13.2295C122.933 13.8252 123.265 14.6138 123.265 15.5952C123.265 16.6304 122.94 17.4287 122.291 17.9902C121.646 18.5469 120.721 18.8252 119.515 18.8252H117.002ZM117.002 17.6753H119.529C120.281 17.6753 120.857 17.4995 121.258 17.1479C121.658 16.7915 121.858 16.2788 121.858 15.6099C121.858 14.9751 121.658 14.4673 121.258 14.0864C120.857 13.7056 120.308 13.5078 119.61 13.4932H117.002V17.6753Z" fill="black"/>
<path d="M33.3039 21.0062C34.3876 21.8142 35.7034 22.2186 37 22.2186C38.2966 22.2186 39.6124 21.8142 40.6961 21.0062C41.5006 20.5896 42 19.7736 42 18.8655V16.6602C42 16.1756 41.6057 15.7813 41.1211 15.7813C40.6364 15.7813 40.2422 16.1756 40.2422 16.6602V16.8398L37.0927 15.7965C37.0326 15.7765 36.9674 15.7765 36.9073 15.7965L33.7578 16.8398V16.6602C33.7578 16.1756 33.3636 15.7813 32.8789 15.7813C32.3943 15.7813 32 16.1756 32 16.6602V18.8655C32 19.7736 32.4994 20.5896 33.3039 21.0062ZM40.8281 16.6602C40.8281 16.4986 40.9595 16.3673 41.1211 16.3673C41.2827 16.3673 41.4141 16.4986 41.4141 16.6602V18.8655C41.4141 19.3865 41.1978 19.8677 40.8281 20.2079C40.8281 20.1174 40.8281 16.508 40.8281 16.6602ZM35.2422 17.5392H38.7773C38.9393 17.5392 39.0703 17.6702 39.0703 17.8321C39.0703 17.9941 38.9393 18.1251 38.7773 18.1251H35.2422C35.0803 18.1251 34.9492 17.9941 34.9492 17.8321C34.9492 17.6702 35.0803 17.5392 35.2422 17.5392ZM34.4022 18.8155C34.4829 18.675 34.6622 18.6263 34.8022 18.7073C36.1303 19.4712 37.8893 19.4712 39.2174 18.7073C39.3573 18.6269 39.5364 18.675 39.6174 18.8155C39.698 18.9557 39.6497 19.1348 39.5092 19.2154C38.7565 19.648 37.8761 19.8769 37 19.8769C36.124 19.8769 35.2631 19.648 34.5104 19.2154C34.3699 19.1347 34.3215 18.9556 34.4022 18.8155V18.8155ZM34.4022 19.9873C34.4829 19.8469 34.6622 19.7982 34.8022 19.8792C36.1303 20.6431 37.8893 20.6431 39.2174 19.8792C39.3573 19.7985 39.5364 19.8469 39.6174 19.9873C39.698 20.1275 39.6497 20.3066 39.5092 20.3873C38.7565 20.8199 37.8761 21.0488 37 21.0488C36.124 21.0488 35.2631 20.8199 34.5104 20.3873C34.3699 20.3066 34.3215 20.1275 34.4022 19.9873V19.9873ZM32.5859 16.6602C32.5859 16.4986 32.7173 16.3673 32.8789 16.3673C33.0405 16.3673 33.1719 16.4986 33.1719 16.6602C33.1719 16.7473 33.1719 20.2669 33.1719 20.2079C32.8022 19.8677 32.5859 19.3865 32.5859 18.8655V16.6602Z" fill="#383838"/>
<g clip-path="url(#clip0)">
<path d="M7.33408 16.6979C7.33408 17.066 7.03554 17.3645 6.66744 17.3645C6.29934 17.3645 6.00092 17.066 6.00092 16.6979C6.00092 16.3297 6.29934 16.0313 6.66744 16.0313C7.03554 16.0313 7.33408 16.3297 7.33408 16.6979Z" fill="black"/>
<path d="M10.3336 19.6975C10.3336 20.0656 10.0352 20.364 9.66708 20.364C9.29898 20.364 9.00043 20.0656 9.00043 19.6975C9.00043 19.3294 9.29898 19.031 9.66708 19.031C10.0352 19.031 10.3336 19.3294 10.3336 19.6975V19.6975Z" fill="black"/>
<path d="M12.0001 15.698C12.0001 16.2503 11.5524 16.6979 11.0003 16.6979C10.448 16.6979 10.0003 16.2503 10.0003 15.698C10.0003 15.1458 10.448 14.6982 11.0003 14.6982C11.5524 14.6982 12.0001 15.1458 12.0001 15.698V15.698Z" fill="black"/>
<path d="M18.6657 16.6979C18.058 16.6974 17.527 17.109 17.3759 17.6978H16.3158C16.2408 16.1632 15.6351 14.7024 14.6023 13.5649L15.3462 12.8251C15.6202 13.0029 15.9397 13.0978 16.2661 13.0984C17.1854 13.0958 17.9284 12.3485 17.9259 11.4293C17.9233 10.5101 17.1761 9.76701 16.2568 9.76958C15.3375 9.77203 14.5945 10.5194 14.5971 11.4386C14.5979 11.7634 14.6939 12.0809 14.873 12.3518L14.1331 13.0957C12.9957 12.0629 11.5348 11.4572 10.0004 11.3823V10.6554C10.7132 10.4712 11.1419 9.74411 10.9578 9.03131C10.7738 8.31838 10.0467 7.88966 9.33372 8.07371C8.62079 8.25776 8.19208 8.98502 8.37625 9.69782C8.49748 10.1674 8.86411 10.5342 9.33372 10.6554V11.3823C7.79924 11.4572 6.33836 12.0629 5.201 13.0957L4.46101 12.3518C4.97091 11.5834 4.76139 10.5472 3.99287 10.0373C3.22447 9.52737 2.18825 9.73701 1.67835 10.5054C1.16858 11.2738 1.3781 12.3101 2.1465 12.8199C2.41969 13.0011 2.74016 13.098 3.06797 13.0984C3.39443 13.0978 3.71392 13.0029 3.98772 12.8251L4.73164 13.5649C3.69898 14.7024 3.09332 16.1632 3.01825 17.6978H2.28475C2.10058 17.0803 1.45096 16.729 0.83354 16.9132C0.216124 17.0972 -0.135198 17.747 0.0489739 18.3643C0.233023 18.9817 0.882767 19.333 1.50006 19.149C1.87722 19.0364 2.17221 18.7414 2.28475 18.3643H3.01788C3.09295 19.8989 3.69861 21.3596 4.73139 22.4971L3.98785 23.237C3.2203 22.729 2.1863 22.9395 1.67848 23.7071C1.24082 24.3684 1.32985 25.2466 1.89142 25.8067C2.53835 26.4573 3.59036 26.4603 4.24108 25.8133C4.24329 25.8111 4.24549 25.8089 4.24769 25.8067C4.80707 25.2469 4.89621 24.3711 4.46101 23.7103L5.201 22.9663C6.33836 23.9991 7.79924 24.6048 9.33372 24.6797V25.4066C8.62079 25.5908 8.19208 26.3179 8.37625 27.0307C8.5603 27.7437 9.28743 28.1724 10.0004 27.9883C10.7132 27.8043 11.1419 27.0771 10.9578 26.3642C10.8366 25.8946 10.4699 25.5278 10.0004 25.4066V24.6797C11.5348 24.6048 12.9957 23.9991 14.1331 22.9663L14.873 23.7103C14.3665 24.4804 14.5802 25.5154 15.3503 26.0219C15.6223 26.2009 15.9406 26.2962 16.2661 26.2966C16.7081 26.2975 17.1319 26.1209 17.4427 25.8067C18.0942 25.1567 18.0957 24.1016 17.4458 23.4499C16.8857 22.8885 16.0076 22.7993 15.3462 23.237L14.6023 22.4971C15.6351 21.3596 16.2408 19.8989 16.3158 18.3644H17.3759C17.5601 19.0772 18.2872 19.5059 19 19.3219C19.713 19.1378 20.1417 18.4107 19.9576 17.6978C19.8055 17.1088 19.2741 16.6974 18.6657 16.6979V16.6979ZM11.0002 14.0316C11.9205 14.0316 12.6666 14.7777 12.6666 15.698C12.6666 16.6183 11.9205 17.3644 11.0002 17.3644C10.0798 17.3644 9.33372 16.6183 9.33372 15.698C9.33482 14.7781 10.0802 14.0327 11.0002 14.0316V14.0316ZM6.3075 19.824C6.29134 19.8648 6.26758 19.9022 6.23746 19.934C6.17354 19.9949 6.08904 20.0294 6.00088 20.0308C5.95728 20.0301 5.9143 20.0211 5.87414 20.0041C5.83385 19.9872 5.79662 19.9635 5.76417 19.934C5.73405 19.9022 5.71029 19.8648 5.69425 19.824C5.67711 19.784 5.66805 19.7409 5.66756 19.6974C5.66878 19.6091 5.70331 19.5246 5.76417 19.4607C5.79662 19.4313 5.83385 19.4077 5.87414 19.3908C5.99843 19.3405 6.14072 19.3679 6.23746 19.4607C6.29832 19.5246 6.33285 19.6091 6.33408 19.6974C6.33359 19.741 6.32452 19.784 6.3075 19.824ZM7.97386 21.8238C7.95782 21.8646 7.93407 21.902 7.90394 21.9338C7.84002 21.9947 7.75553 22.0292 7.66724 22.0304C7.62377 22.0299 7.58066 22.0209 7.54062 22.0037C7.50021 21.9868 7.46311 21.9632 7.43066 21.9338C7.40053 21.9019 7.37678 21.8646 7.36061 21.8238C7.34359 21.7837 7.33453 21.7407 7.33404 21.6971C7.33526 21.6089 7.3698 21.5244 7.43066 21.4605C7.46298 21.4311 7.50021 21.4075 7.54062 21.3905C7.66491 21.3403 7.8072 21.3676 7.90382 21.4605C7.96468 21.5244 7.99921 21.6089 8.00056 21.6971C8.00007 21.7407 7.99101 21.7838 7.97386 21.8238V21.8238ZM6.6674 18.0311C5.93108 18.0311 5.33423 17.4341 5.33423 16.6979C5.33423 15.9616 5.9312 15.3648 6.6674 15.3648C7.40372 15.3648 8.00056 15.9616 8.00056 16.6979C8.00056 17.4341 7.40372 18.0311 6.6674 18.0311ZM8.33388 19.6974C8.33388 18.9611 8.93072 18.3643 9.66704 18.3643C10.4032 18.3643 11.0001 18.9612 11.0001 19.6974C11.0001 20.4337 10.4032 21.0306 9.66704 21.0306C8.93072 21.0306 8.33388 20.4337 8.33388 19.6974V19.6974ZM9.66704 23.3636C9.48299 23.3636 9.33372 23.2144 9.33372 23.0303C9.33372 22.8462 9.48299 22.6971 9.66704 22.6971C12.2429 22.6943 14.3302 20.6068 14.3331 18.031C14.3331 17.8469 14.4822 17.6978 14.6664 17.6978C14.8504 17.6978 14.9997 17.8469 14.9997 18.031C14.9961 20.9746 12.6107 23.3602 9.66704 23.3636Z" fill="black"/>
</g>
<defs>
<clipPath id="clip0">
<rect y="8" width="20" height="20" fill="white"/>
</clipPath>
</defs>
</svg>
